HIERARCHY
ROOT joint_Root
{
	OFFSET 0.0 0.0 0.0
	CHANNELS 6 Xposition Yposition Zposition Zrotation Xrotation Yrotation 
	JOINT Hips
	{
		OFFSET -17.1583 93.1646 452.98
		CHANNELS 6 Xposition Yposition Zposition Zrotation Xrotation Yrotation 
		JOINT Spine
		{
			OFFSET 15.7357 0.0 0.0
			CHANNELS 6 Xposition Yposition Zposition Zrotation Xrotation Yrotation 
			JOINT Chest
			{
				OFFSET 8.98455 -0.406207 0.0
				CHANNELS 6 Xposition Yposition Zposition Zrotation Xrotation Yrotation 
				JOINT Neck
				{
					OFFSET 16.3773 0.0 0.0
					CHANNELS 6 Xposition Yposition Zposition Zrotation Xrotation Yrotation 
					JOINT Head
					{
						OFFSET 6.45672 0.0 0.0
						CHANNELS 6 Xposition Yposition Zposition Zrotation Xrotation Yrotation 
						End Site
						{
							OFFSET 0.0 0.0 0.0
						}
					}
				}
				JOINT Shoulder_L
				{
					OFFSET 12.9942 -0.242716 4.98039
					CHANNELS 6 Xposition Yposition Zposition Zrotation Xrotation Yrotation 
					JOINT UpperArm_L
					{
						OFFSET 5.34809 0.0 0.0
						CHANNELS 6 Xposition Yposition Zposition Zrotation Xrotation Yrotation 
						JOINT LowerArm_L
						{
							OFFSET 24.3286 1.87007e-05 0.0
							CHANNELS 6 Xposition Yposition Zposition Zrotation Xrotation Yrotation 
							JOINT Hand_L
							{
								OFFSET 22.2916 0.0 0.0
								CHANNELS 6 Xposition Yposition Zposition Zrotation Xrotation Yrotation 
								End Site
								{
									OFFSET 0.0 0.0 0.0
								}
							}
						}
					}
				}
				JOINT Shoulder_R
				{
					OFFSET 12.9945 -0.242716 -4.98039
					CHANNELS 6 Xposition Yposition Zposition Zrotation Xrotation Yrotation 
					JOINT UpperArm_R
					{
						OFFSET -5.34813 0.0 0.0
						CHANNELS 6 Xposition Yposition Zposition Zrotation Xrotation Yrotation 
						JOINT LowerArm_R
						{
							OFFSET -24.3289 0.000322201 0.0
							CHANNELS 6 Xposition Yposition Zposition Zrotation Xrotation Yrotation 
							JOINT Hand_R
							{
								OFFSET -22.2915 -0.000108084 0.0
								CHANNELS 6 Xposition Yposition Zposition Zrotation Xrotation Yrotation 
								End Site
								{
									OFFSET 0.0 0.0 0.0
								}
							}
						}
					}
				}
			}
		}
		JOINT UpperLeg_L
		{
			OFFSET -2.19248 -6.46944 0.0
			CHANNELS 6 Xposition Yposition Zposition Zrotation Xrotation Yrotation 
			JOINT LowerLeg_L
			{
				OFFSET 39.0811 0.0 -1.23785e-05
				CHANNELS 6 Xposition Yposition Zposition Zrotation Xrotation Yrotation 
				JOINT Foot_L
				{
					OFFSET 40.9854 0.0 -1.26872e-05
					CHANNELS 6 Xposition Yposition Zposition Zrotation Xrotation Yrotation 
					JOINT Toes_L
					{
						OFFSET 11.7543 0.0 0.0
						CHANNELS 6 Xposition Yposition Zposition Zrotation Xrotation Yrotation 
						End Site
						{
							OFFSET 0.0 0.0 0.0
						}
					}
				}
			}
		}
		JOINT UpperLeg_R
		{
			OFFSET -2.19251 6.46944 0.0
			CHANNELS 6 Xposition Yposition Zposition Zrotation Xrotation Yrotation 
			JOINT LowerLeg_R
			{
				OFFSET -39.0811 -0.00228153 -0.0401928
				CHANNELS 6 Xposition Yposition Zposition Zrotation Xrotation Yrotation 
				JOINT Foot_R
				{
					OFFSET -40.9854 0.0 0.0
					CHANNELS 6 Xposition Yposition Zposition Zrotation Xrotation Yrotation 
					JOINT Toes_R
					{
						OFFSET -11.7543 0.0 0.0
						CHANNELS 6 Xposition Yposition Zposition Zrotation Xrotation Yrotation 
						End Site
						{
							OFFSET 0.0 0.0 0.0
						}
					}
				}
			}
		}
	}
}
MOTION
Frames:	7
Frame Time:	0.0333333
0.000000 0.000000 0.000000 0.000000 0.000000 -0.000000 -4.880520 91.865000 -0.814041 83.172200 -2.289330 2.419190 15.735700 0.000005 -0.000001 55.884100 87.953400 -52.353900 8.984550 -0.406207 -0.000000 -4.287680 -2.664890 6.965750 16.377300 -0.000001 -0.000001 10.704100 2.160720 7.848130 6.456720 -0.000001 -0.000000 8.359970 6.605280 15.860300 12.994200 -0.242716 4.980390 -91.748000 5.395850 -72.020300 5.348090 -0.000007 -0.000001 -76.054000 33.244000 3.275550 24.328600 0.000019 0.000005 12.637700 27.634900 -25.799000 22.291600 -0.000001 0.000005 -3.744570 4.953270 8.297630 12.994500 -0.242716 -4.980390 87.788800 6.014160 -69.770400 -5.348130 -0.000001 -0.000004 -68.461300 2.052360 -8.811920 -24.328900 0.000322 -0.000009 18.371600 -22.045900 -138.497000 -22.291500 -0.000108 -0.000004 57.910300 5.658660 -15.907100 -2.192480 -6.469440 -0.000000 -170.399000 2.980460 -5.316780 39.081100 -0.000007 -0.000012 0.411934 -0.748449 28.828700 40.985400 -0.000006 -0.000013 -1.115420 4.188630 -77.179400 11.754300 -0.000000 0.000003 0.001091 0.146621 -10.630700 -2.192510 6.469440 -0.000001 -168.368000 6.671940 -177.939000 -39.081100 -0.002282 -0.040193 0.071258 -0.251389 15.120800 -40.985400 0.000008 0.000006 4.095000 3.449460 -70.393600 -11.754300 -0.000006 -0.000006 -0.010318 0.273668 -5.454340
0.000000 0.000000 0.000000 0.000000 0.000000 -0.000000 -4.930470 91.859300 -0.786533 83.198800 -2.357490 2.403740 15.735700 0.000005 -0.000001 56.249600 87.958900 -52.740300 8.984550 -0.406207 -0.000000 -4.283700 -2.634840 6.925030 16.377300 -0.000001 -0.000001 10.675500 2.127710 7.834950 6.456720 -0.000001 -0.000000 8.319370 6.519360 15.823400 12.994200 -0.242716 4.980390 -91.768500 5.448080 -71.985700 5.348090 -0.000007 -0.000001 -76.148900 33.223700 3.388200 24.328600 0.000019 0.000005 12.615600 27.658500 -25.740800 22.291600 -0.000001 0.000005 -3.683810 4.956680 8.227600 12.994500 -0.242716 -4.980390 87.801700 5.973320 -69.752300 -5.348130 -0.000001 -0.000004 -68.496500 1.894040 -8.828210 -24.328900 0.000322 -0.000009 18.209100 -21.880200 -138.564000 -22.291500 -0.000108 -0.000004 57.822700 5.659140 -15.960800 -2.192480 -6.469440 -0.000000 -170.401000 2.909970 -5.295070 39.081100 -0.000007 -0.000012 0.418147 -0.760117 28.816600 40.985400 -0.000006 -0.000013 -1.144680 4.186180 -77.194200 11.754300 -0.000000 0.000003 0.001126 0.145822 -10.663100 -2.192510 6.469440 -0.000001 -168.356000 6.608940 -177.924000 -39.081100 -0.002282 -0.040193 0.072350 -0.255607 15.111000 -40.985400 0.000008 0.000006 4.178690 3.419590 -70.396000 -11.754300 -0.000006 -0.000006 -0.010341 0.273837 -5.447420
0.000000 0.000000 0.000000 0.000000 0.000000 -0.000000 -4.976590 91.863200 -0.770109 83.208700 -2.309730 2.382200 15.735700 0.000005 -0.000001 56.039200 87.963300 -52.557300 8.984550 -0.406207 -0.000000 -4.299920 -2.640030 6.869840 16.377300 -0.000001 -0.000001 10.640900 2.056940 7.888100 6.456720 -0.000001 -0.000000 8.300010 6.458570 15.791600 12.994200 -0.242716 4.980390 -91.760600 5.422680 -71.981900 5.348090 -0.000007 -0.000001 -76.324300 33.098500 3.514250 24.328600 0.000019 0.000005 12.631900 27.692900 -25.745100 22.291600 -0.000001 0.000005 -3.701850 4.957830 8.203670 12.994500 -0.242716 -4.980390 87.808100 5.947310 -69.726100 -5.348130 -0.000001 -0.000004 -68.504600 1.757720 -8.779480 -24.328900 0.000322 -0.000009 18.241500 -21.899800 -138.534000 -22.291500 -0.000108 -0.000004 57.786600 5.656920 -15.716200 -2.192480 -6.469440 -0.000000 -170.371000 2.933560 -5.286560 39.081100 -0.000007 -0.000012 0.414017 -0.754211 28.765200 40.985400 -0.000006 -0.000013 -1.179280 4.202410 -77.202900 11.754300 -0.000000 0.000003 0.001093 0.146566 -10.632900 -2.192510 6.469440 -0.000001 -168.362000 6.771570 -177.905000 -39.081100 -0.002282 -0.040193 0.069786 -0.247234 15.045400 -40.985400 0.000008 0.000006 4.144510 3.544260 -70.390200 -11.754300 -0.000006 -0.000006 -0.010483 0.274883 -5.404630
0.000000 0.000000 0.000000 0.000000 0.000000 -0.000000 -5.010240 91.859800 -0.736295 83.240700 -2.290810 2.359760 15.735700 0.000005 -0.000001 56.061800 87.972500 -52.610700 8.984550 -0.406207 -0.000000 -4.315660 -2.625600 6.808110 16.377300 -0.000001 -0.000001 10.649100 2.031570 7.866770 6.456720 -0.000001 -0.000000 8.238530 6.334570 15.879000 12.994200 -0.242716 4.980390 -91.772700 5.445720 -71.937600 5.348090 -0.000007 -0.000001 -76.391700 33.114100 3.591920 24.328600 0.000019 0.000005 12.614300 27.614000 -25.771700 22.291600 -0.000001 0.000005 -3.766500 4.964930 8.056560 12.994500 -0.242716 -4.980390 87.808700 5.941660 -69.713800 -5.348130 -0.000001 -0.000004 -68.447900 1.612510 -8.721950 -24.328900 0.000322 -0.000009 18.023500 -21.659100 -138.601000 -22.291500 -0.000108 -0.000004 57.562000 5.657000 -15.727000 -2.192480 -6.469440 -0.000000 -170.385000 2.965210 -5.268780 39.081100 -0.000007 -0.000012 0.415442 -0.757860 28.731700 40.985400 -0.000006 -0.000013 -1.194210 4.217410 -77.220100 11.754300 -0.000000 0.000003 0.001086 0.146736 -10.626000 -2.192510 6.469440 -0.000001 -168.379000 6.797340 -177.904000 -39.081100 -0.002282 -0.040193 0.070588 -0.250307 15.040200 -40.985400 0.000008 0.000006 4.196940 3.555020 -70.423600 -11.754300 -0.000006 -0.000006 -0.010499 0.274998 -5.399910
0.000000 0.000000 0.000000 0.000000 0.000000 -0.000000 -5.038060 91.861000 -0.706506 83.277800 -2.223590 2.320260 15.735700 0.000005 -0.000001 56.213800 87.991300 -52.800500 8.984550 -0.406207 -0.000000 -4.342860 -2.592640 6.733290 16.377300 -0.000001 -0.000001 10.590600 1.954030 7.887870 6.456720 -0.000001 -0.000000 8.258320 6.226080 15.911800 12.994200 -0.242716 4.980390 -91.777100 5.456060 -71.928300 5.348090 -0.000007 -0.000001 -76.435800 33.126900 3.603930 24.328600 0.000019 0.000005 12.632700 27.587200 -25.825400 22.291600 -0.000001 0.000005 -3.834460 4.960390 8.150800 12.994500 -0.242716 -4.980390 87.804400 5.949660 -69.701800 -5.348130 -0.000001 -0.000004 -68.385700 1.505400 -8.644440 -24.328900 0.000322 -0.000009 18.124900 -21.728000 -138.516000 -22.291500 -0.000108 -0.000004 57.686200 5.655330 -15.546900 -2.192480 -6.469440 -0.000000 -170.396000 2.976360 -5.280990 39.081100 -0.000007 -0.000012 0.412396 -0.753932 28.679400 40.985400 -0.000006 -0.000013 -1.203880 4.253330 -77.197600 11.754300 -0.000000 0.000003 0.001036 0.147835 -10.581400 -2.192510 6.469440 -0.000001 -168.390000 6.796330 -177.925000 -39.081100 -0.002282 -0.040193 0.069960 -0.248230 15.025100 -40.985400 0.000008 0.000006 4.076300 3.477440 -70.384500 -11.754300 -0.000006 -0.000006 -0.010346 0.273875 -5.445870
0.000000 0.000000 0.000000 0.000000 0.000000 -0.000000 -5.058710 91.866500 -0.670914 83.291100 -2.150830 2.288860 15.735700 0.000005 -0.000001 56.188100 87.996900 -52.803000 8.984550 -0.406207 -0.000000 -4.354250 -2.585220 6.676850 16.377300 -0.000001 -0.000001 10.560000 1.913210 7.876220 6.456720 -0.000001 -0.000000 8.244390 6.156610 15.937600 12.994200 -0.242716 4.980390 -91.788100 5.473390 -71.876800 5.348090 -0.000007 -0.000001 -76.433100 33.105900 3.571330 24.328600 0.000019 0.000005 12.636300 27.612700 -25.813000 22.291600 -0.000001 0.000005 -3.732890 4.958640 8.186540 12.994500 -0.242716 -4.980390 87.794700 5.978580 -69.709600 -5.348130 -0.000001 -0.000004 -68.331200 1.401210 -8.630120 -24.328900 0.000322 -0.000009 18.041600 -21.587900 -138.481000 -22.291500 -0.000108 -0.000004 57.610600 5.655630 -15.579400 -2.192480 -6.469440 -0.000000 -170.387000 2.958730 -5.264960 39.081100 -0.000007 -0.000012 0.415842 -0.762253 28.615500 40.985400 -0.000006 -0.000013 -1.190420 4.355840 -77.219600 11.754300 -0.000000 0.000003 0.001036 0.147851 -10.580800 -2.192510 6.469440 -0.000001 -168.443000 7.041670 -177.921000 -39.081100 -0.002282 -0.040193 0.067045 -0.238192 14.975600 -40.985400 0.000008 0.000006 4.033720 3.689110 -70.384400 -11.754300 -0.000006 -0.000006 -0.010648 0.276083 -5.355510
0.000000 0.000000 0.000000 0.000000 0.000000 -0.000000 -5.073760 91.860300 -0.637239 83.304500 -2.066720 2.249850 15.735700 0.000005 -0.000001 56.117600 88.016000 -52.743700 8.984550 -0.406207 -0.000000 -4.389560 -2.567840 6.654440 16.377300 -0.000001 -0.000001 10.528600 1.869340 7.786530 6.456720 -0.000001 -0.000000 8.285050 6.049360 15.859300 12.994200 -0.242716 4.980390 -91.803200 5.518610 -71.874000 5.348090 -0.000007 -0.000001 -76.404800 33.083000 3.544520 24.328600 0.000019 0.000005 12.646700 27.620200 -25.826500 22.291600 -0.000001 0.000005 -3.685670 4.955660 8.248430 12.994500 -0.242716 -4.980390 87.800500 5.956970 -69.691800 -5.348130 -0.000001 -0.000004 -68.339900 1.359970 -8.614220 -24.328900 0.000322 -0.000009 18.029100 -21.524700 -138.423000 -22.291500 -0.000108 -0.000004 57.509600 5.656020 -15.620500 -2.192480 -6.469440 -0.000000 -170.374000 2.943740 -5.315070 39.081100 -0.000007 -0.000012 0.412108 -0.755252 28.620400 40.985400 -0.000006 -0.000013 -1.184340 4.422970 -77.176800 11.754300 -0.000000 0.000003 0.001033 0.147902 -10.578700 -2.192510 6.469440 -0.000001 -168.454000 7.143050 -177.946000 -39.081100 -0.002282 -0.040193 0.067492 -0.239691 14.986000 -40.985400 0.000008 0.000006 4.047520 3.730520 -70.428700 -11.754300 -0.000006 -0.000006 -0.010932 0.278140 -5.271320
